<svg viewBox="408 688 134 80" fill="none" xmlns="http://www.w3.org/2000/svg">
<g filter="url(#filter0_d_65_1110)">
<path d="M426.384 707.258C428.455 707.258 430.127 709.043 430.104 711.229L429.67 752.967C429.648 755.12 427.989 756.852 425.95 756.852H424.046C422.797 756.852 421.632 756.191 420.943 755.092L416.444 747.913C415.913 747.065 415.854 745.98 416.29 745.074C416.82 743.974 417.964 743.365 419.116 743.568L420.957 743.893C421.617 744.01 422.279 743.697 422.637 743.099C422.913 742.637 422.97 742.066 422.791 741.554L422.314 740.186C422.171 739.778 422.396 739.329 422.796 739.225L423.216 739.115C423.536 739.031 423.655 738.617 423.432 738.361C423.248 738.147 423.294 737.808 423.529 737.659L423.787 737.494C424.191 737.237 424.232 736.634 423.866 736.319L423.754 736.223C423.183 735.732 423.512 734.756 424.248 734.756H425.37C426.37 734.756 426.918 733.527 426.281 732.713L424.21 730.068C423.521 729.188 423.393 727.959 423.885 726.942L423.975 726.755C424.382 725.913 424.413 724.924 424.061 724.055L422.525 720.27C422.214 719.505 421.681 718.864 421.003 718.439L419.63 717.579C419.107 717.251 418.677 716.781 418.386 716.218C417.67 714.834 417.897 713.118 418.944 711.994L422.267 708.43C422.967 707.68 423.922 707.258 424.918 707.258H426.384Z" fill="white"/>
<path d="M434.947 707.258C432.876 707.258 431.204 709.043 431.227 711.229L431.661 752.967C431.683 755.12 433.342 756.852 435.381 756.852H437.285C438.534 756.852 439.699 756.191 440.388 755.092L444.887 747.913C445.418 747.065 445.477 745.98 445.041 745.074C444.511 743.974 443.367 743.365 442.215 743.568L440.374 743.893C439.714 744.01 439.052 743.697 438.694 743.099C438.418 742.637 438.361 742.066 438.54 741.554L439.017 740.186C439.16 739.778 438.935 739.329 438.535 739.225L438.115 739.115C437.795 739.031 437.677 738.617 437.899 738.361C438.084 738.147 438.037 737.808 437.802 737.659L437.544 737.494C437.14 737.237 437.099 736.634 437.465 736.319L437.577 736.223C438.148 735.732 437.819 734.756 437.083 734.756H435.961C434.962 734.756 434.414 733.527 435.05 732.713L437.121 730.068C437.81 729.188 437.938 727.959 437.446 726.942L437.356 726.755C436.949 725.913 436.918 724.924 437.27 724.055L438.806 720.27C439.117 719.505 439.65 718.864 440.328 718.439L441.701 717.579C442.224 717.251 442.654 716.781 442.945 716.218C443.661 714.834 443.434 713.118 442.387 711.994L439.064 708.43C438.364 707.68 437.409 707.258 436.413 707.258H434.947Z" fill="white"/>
<path d="M422.63 705.294C422.63 704.209 423.463 703.33 424.49 703.33H436.875C437.902 703.33 438.735 704.209 438.735 705.294C438.735 706.379 437.902 707.258 436.875 707.258H424.49C423.463 707.258 422.63 706.379 422.63 705.294Z" fill="white"/>
<path d="M428.166 707.275C428.166 705.367 429.631 703.821 431.437 703.821C433.244 703.821 434.709 705.367 434.709 707.275V751.925C434.709 753.833 433.244 755.379 431.437 755.379C429.631 755.379 428.166 753.833 428.166 751.925V707.275Z" fill="white"/>
<path d="M425.146 753.924C425.146 753.372 425.594 752.924 426.146 752.924H435.722C436.274 752.924 436.722 753.372 436.722 753.924V755.852C436.722 756.404 436.274 756.852 435.722 756.852H426.146C425.594 756.852 425.146 756.404 425.146 755.852V753.924Z" fill="white"/>
<path d="M435.715 698.91C435.715 701.622 433.462 703.821 430.682 703.821C427.903 703.821 425.65 701.622 425.65 698.91C425.65 696.198 427.903 694 430.682 694C433.462 694 435.715 696.198 435.715 698.91Z" fill="white"/>
<path d="M434.95 710.695C434.95 713.407 432.697 715.605 429.917 715.605C427.138 715.605 424.885 713.407 424.885 710.695C424.885 707.983 427.138 705.785 429.917 705.785C432.697 705.785 434.95 707.983 434.95 710.695Z" fill="white"/>
<g filter="url(#filter1_d_65_1110)">
<path d="M456.928 741.826C458.949 741.826 460.451 743.527 461.755 745.072C462.134 745.521 462.593 745.893 463.13 746.186C464.651 746.965 466.399 747.354 468.376 747.354C470.302 747.354 471.899 747.017 473.166 746.342C474.433 745.615 475.066 744.447 475.066 742.838C475.066 741.8 474.61 741.022 473.698 740.503C472.786 739.932 471.594 739.49 470.125 739.179C468.655 738.816 467.033 738.478 465.259 738.167C463.485 737.855 461.686 737.44 459.861 736.921C458.087 736.402 456.465 735.675 454.995 734.741C453.525 733.807 452.334 732.535 451.422 730.926C450.509 729.317 450.053 727.267 450.053 724.775C450.053 722.44 450.788 720.208 452.258 718.08C453.779 715.9 455.882 714.135 458.568 712.785C461.255 711.436 464.321 710.761 467.768 710.761C470.859 710.761 473.723 711.41 476.359 712.707C478.994 713.953 481.123 715.692 482.745 717.924C483.601 719.102 484.231 720.38 484.635 721.76C485.256 723.88 483.387 725.71 481.178 725.71H477.934C475.876 725.71 474.4 723.936 473.095 722.345C472.793 721.976 472.436 721.67 472.025 721.428C470.758 720.649 469.238 720.26 467.464 720.26C465.284 720.26 463.637 720.701 462.522 721.583C461.407 722.414 460.849 723.478 460.849 724.775C460.849 725.917 461.305 726.8 462.218 727.423C463.13 728.045 464.321 728.539 465.791 728.902C467.261 729.265 468.883 729.603 470.657 729.914C472.481 730.174 474.281 730.563 476.055 731.082C477.829 731.549 479.451 732.25 480.92 733.184C482.39 734.066 483.581 735.286 484.494 736.843C485.406 738.4 485.862 740.399 485.862 742.838C485.862 745.589 485.102 748.029 483.581 750.157C482.112 752.233 480.033 753.868 477.347 755.062C474.712 756.256 471.594 756.853 467.996 756.853C464.651 756.853 461.584 756.204 458.796 754.906C456.059 753.557 453.855 751.766 452.182 749.534C451.345 748.391 450.704 747.175 450.261 745.889C449.522 743.748 451.401 741.826 453.666 741.826H456.928Z" fill="white"/>
<path d="M511.58 756.853C507.221 756.853 503.395 755.892 500.1 753.972C496.856 752 494.322 749.275 492.497 745.797C490.723 742.319 489.836 738.349 489.836 733.885C489.836 729.369 490.723 725.372 492.497 721.895C494.322 718.417 496.856 715.692 500.1 713.72C503.395 711.747 507.221 710.761 511.58 710.761C515.99 710.761 519.817 711.747 523.06 713.72C526.304 715.692 528.813 718.417 530.587 721.895C532.412 725.372 533.324 729.369 533.324 733.885C533.324 738.349 532.412 742.319 530.587 745.797C528.813 749.275 526.304 752 523.06 753.972C519.817 755.892 515.99 756.853 511.58 756.853ZM511.58 746.887C514.064 746.887 516.066 746.316 517.586 745.174C519.158 743.98 520.323 742.397 521.084 740.425C521.844 738.452 522.224 736.272 522.224 733.885C522.224 731.445 521.844 729.239 521.084 727.267C520.323 725.243 519.158 723.659 517.586 722.518C516.066 721.324 514.064 720.727 511.58 720.727C509.147 720.727 507.145 721.324 505.574 722.518C504.003 723.659 502.837 725.243 502.077 727.267C501.317 729.239 500.936 731.445 500.936 733.885C500.936 736.272 501.317 738.452 502.077 740.425C502.837 742.397 504.003 743.98 505.574 745.174C507.145 746.316 509.147 746.887 511.58 746.887Z" fill="white"/>
</g>
</g>
<defs>
<filter id="filter0_d_65_1110" x="400" y="680" width="150" height="95" filterUnits="userSpaceOnUse" color-interpolation-filters="sRGB">
<feFlood flood-opacity="0" result="BackgroundImageFix"/>
<feColorMatrix in="SourceAlpha" type="matrix" values="0 0 0 0 0 0 0 0 0 0 0 0 0 0 0 0 0 0 127 0" result="hardAlpha"/>
<feOffset dy="2"/>
<feGaussianBlur stdDeviation="1"/>
<feComposite in2="hardAlpha" operator="out"/>
<feColorMatrix type="matrix" values="0 0 0 0 0.662091 0 0 0 0 0.0772439 0 0 0 0 0 0 0 0 0.35 0"/>
<feBlend mode="normal" in2="BackgroundImageFix" result="effect1_dropShadow_65_1110"/>
<feBlend mode="normal" in="SourceGraphic" in2="effect1_dropShadow_65_1110" result="shape"/>
</filter>
<filter id="filter1_d_65_1110" x="400" y="680" width="150" height="95" filterUnits="userSpaceOnUse" color-interpolation-filters="sRGB">
<feFlood flood-opacity="0" result="BackgroundImageFix"/>
<feColorMatrix in="SourceAlpha" type="matrix" values="0 0 0 0 0 0 0 0 0 0 0 0 0 0 0 0 0 0 127 0" result="hardAlpha"/>
<feOffset dy="2"/>
<feGaussianBlur stdDeviation="1"/>
<feComposite in2="hardAlpha" operator="out"/>
<feColorMatrix type="matrix" values="0 0 0 0 1 0 0 0 0 1 0 0 0 0 1 0 0 0 0.15 0"/>
<feBlend mode="normal" in2="BackgroundImageFix" result="effect1_dropShadow_65_1110"/>
<feBlend mode="normal" in="SourceGraphic" in2="effect1_dropShadow_65_1110" result="shape"/>
</filter>
</defs>
</svg>
