<svg width="951" height="1514" viewBox="0 0 951 1514" fill="none" xmlns="http://www.w3.org/2000/svg">
<rect width="951" height="1514" fill="url(#paint0_linear_65_1110)"/>
<g filter="url(#filter0_d_65_1110)">
<path d="M426.384 707.258C428.455 707.258 430.127 709.043 430.104 711.229L429.67 752.967C429.648 755.12 427.989 756.852 425.95 756.852H424.046C422.797 756.852 421.632 756.191 420.943 755.092L416.444 747.913C415.913 747.065 415.854 745.98 416.29 745.074C416.82 743.974 417.964 743.365 419.116 743.568L420.957 743.893C421.617 744.01 422.279 743.697 422.637 743.099C422.913 742.637 422.97 742.066 422.791 741.554L422.314 740.186C422.171 739.778 422.396 739.329 422.796 739.225L423.216 739.115C423.536 739.031 423.655 738.617 423.432 738.361C423.248 738.147 423.294 737.808 423.529 737.659L423.787 737.494C424.191 737.237 424.232 736.634 423.866 736.319L423.754 736.223C423.183 735.732 423.512 734.756 424.248 734.756H425.37C426.37 734.756 426.918 733.527 426.281 732.713L424.21 730.068C423.521 729.188 423.393 727.959 423.885 726.942L423.975 726.755C424.382 725.913 424.413 724.924 424.061 724.055L422.525 720.27C422.214 719.505 421.681 718.864 421.003 718.439L419.63 717.579C419.107 717.251 418.677 716.781 418.386 716.218C417.67 714.834 417.897 713.118 418.944 711.994L422.267 708.43C422.967 707.68 423.922 707.258 424.918 707.258H426.384Z" fill="white"/>
<path d="M434.947 707.258C432.876 707.258 431.204 709.043 431.227 711.229L431.661 752.967C431.683 755.12 433.342 756.852 435.381 756.852H437.285C438.534 756.852 439.699 756.191 440.388 755.092L444.887 747.913C445.418 747.065 445.477 745.98 445.041 745.074C444.511 743.974 443.367 743.365 442.215 743.568L440.374 743.893C439.714 744.01 439.052 743.697 438.694 743.099C438.418 742.637 438.361 742.066 438.54 741.554L439.017 740.186C439.16 739.778 438.935 739.329 438.535 739.225L438.115 739.115C437.795 739.031 437.677 738.617 437.899 738.361C438.084 738.147 438.037 737.808 437.802 737.659L437.544 737.494C437.14 737.237 437.099 736.634 437.465 736.319L437.577 736.223C438.148 735.732 437.819 734.756 437.083 734.756H435.961C434.962 734.756 434.414 733.527 435.05 732.713L437.121 730.068C437.81 729.188 437.938 727.959 437.446 726.942L437.356 726.755C436.949 725.913 436.918 724.924 437.27 724.055L438.806 720.27C439.117 719.505 439.65 718.864 440.328 718.439L441.701 717.579C442.224 717.251 442.654 716.781 442.945 716.218C443.661 714.834 443.434 713.118 442.387 711.994L439.064 708.43C438.364 707.68 437.409 707.258 436.413 707.258H434.947Z" fill="white"/>
<path d="M422.63 705.294C422.63 704.209 423.463 703.33 424.49 703.33H436.875C437.902 703.33 438.735 704.209 438.735 705.294C438.735 706.379 437.902 707.258 436.875 707.258H424.49C423.463 707.258 422.63 706.379 422.63 705.294Z" fill="white"/>
<path d="M428.166 707.275C428.166 705.367 429.631 703.821 431.437 703.821C433.244 703.821 434.709 705.367 434.709 707.275V751.925C434.709 753.833 433.244 755.379 431.437 755.379C429.631 755.379 428.166 753.833 428.166 751.925V707.275Z" fill="white"/>
<path d="M425.146 753.924C425.146 753.372 425.594 752.924 426.146 752.924H435.722C436.274 752.924 436.722 753.372 436.722 753.924V755.852C436.722 756.404 436.274 756.852 435.722 756.852H426.146C425.594 756.852 425.146 756.404 425.146 755.852V753.924Z" fill="white"/>
<path d="M435.715 698.91C435.715 701.622 433.462 703.821 430.682 703.821C427.903 703.821 425.65 701.622 425.65 698.91C425.65 696.198 427.903 694 430.682 694C433.462 694 435.715 696.198 435.715 698.91Z" fill="white"/>
<path d="M434.95 710.695C434.95 713.407 432.697 715.605 429.917 715.605C427.138 715.605 424.885 713.407 424.885 710.695C424.885 707.983 427.138 705.785 429.917 705.785C432.697 705.785 434.95 707.983 434.95 710.695Z" fill="white"/>
<g filter="url(#filter1_d_65_1110)">
<path d="M456.928 741.826C458.949 741.826 460.451 743.527 461.755 745.072C462.134 745.521 462.593 745.893 463.13 746.186C464.651 746.965 466.399 747.354 468.376 747.354C470.302 747.354 471.899 747.017 473.166 746.342C474.433 745.615 475.066 744.447 475.066 742.838C475.066 741.8 474.61 741.022 473.698 740.503C472.786 739.932 471.594 739.49 470.125 739.179C468.655 738.816 467.033 738.478 465.259 738.167C463.485 737.855 461.686 737.44 459.861 736.921C458.087 736.402 456.465 735.675 454.995 734.741C453.525 733.807 452.334 732.535 451.422 730.926C450.509 729.317 450.053 727.267 450.053 724.775C450.053 722.44 450.788 720.208 452.258 718.08C453.779 715.9 455.882 714.135 458.568 712.785C461.255 711.436 464.321 710.761 467.768 710.761C470.859 710.761 473.723 711.41 476.359 712.707C478.994 713.953 481.123 715.692 482.745 717.924C483.601 719.102 484.231 720.38 484.635 721.76C485.256 723.88 483.387 725.71 481.178 725.71H477.934C475.876 725.71 474.4 723.936 473.095 722.345C472.793 721.976 472.436 721.67 472.025 721.428C470.758 720.649 469.238 720.26 467.464 720.26C465.284 720.26 463.637 720.701 462.522 721.583C461.407 722.414 460.849 723.478 460.849 724.775C460.849 725.917 461.305 726.8 462.218 727.423C463.13 728.045 464.321 728.539 465.791 728.902C467.261 729.265 468.883 729.603 470.657 729.914C472.481 730.174 474.281 730.563 476.055 731.082C477.829 731.549 479.451 732.25 480.92 733.184C482.39 734.066 483.581 735.286 484.494 736.843C485.406 738.4 485.862 740.399 485.862 742.838C485.862 745.589 485.102 748.029 483.581 750.157C482.112 752.233 480.033 753.868 477.347 755.062C474.712 756.256 471.594 756.853 467.996 756.853C464.651 756.853 461.584 756.204 458.796 754.906C456.059 753.557 453.855 751.766 452.182 749.534C451.345 748.391 450.704 747.175 450.261 745.889C449.522 743.748 451.401 741.826 453.666 741.826H456.928Z" fill="white"/>
<path d="M511.58 756.853C507.221 756.853 503.395 755.892 500.1 753.972C496.856 752 494.322 749.275 492.497 745.797C490.723 742.319 489.836 738.349 489.836 733.885C489.836 729.369 490.723 725.372 492.497 721.895C494.322 718.417 496.856 715.692 500.1 713.72C503.395 711.747 507.221 710.761 511.58 710.761C515.99 710.761 519.817 711.747 523.06 713.72C526.304 715.692 528.813 718.417 530.587 721.895C532.412 725.372 533.324 729.369 533.324 733.885C533.324 738.349 532.412 742.319 530.587 745.797C528.813 749.275 526.304 752 523.06 753.972C519.817 755.892 515.99 756.853 511.58 756.853ZM511.58 746.887C514.064 746.887 516.066 746.316 517.586 745.174C519.158 743.98 520.323 742.397 521.084 740.425C521.844 738.452 522.224 736.272 522.224 733.885C522.224 731.445 521.844 729.239 521.084 727.267C520.323 725.243 519.158 723.659 517.586 722.518C516.066 721.324 514.064 720.727 511.58 720.727C509.147 720.727 507.145 721.324 505.574 722.518C504.003 723.659 502.837 725.243 502.077 727.267C501.317 729.239 500.936 731.445 500.936 733.885C500.936 736.272 501.317 738.452 502.077 740.425C502.837 742.397 504.003 743.98 505.574 745.174C507.145 746.316 509.147 746.887 511.58 746.887Z" fill="white"/>
</g>
</g>
<path d="M308.272 823.56H311.704V837H308.272V823.56ZM308.152 819H311.824V822.672H308.152V819ZM313.574 823.56H320.654V826.488H313.574V823.56ZM315.11 820.2H318.542V832.872C318.542 833.272 318.646 833.576 318.854 833.784C319.078 833.976 319.406 834.072 319.838 834.072H321.038V837H319.814C318.246 837 317.07 836.656 316.286 835.968C315.502 835.28 315.11 834.248 315.11 832.872V820.2ZM325.822 832.752C325.902 833.392 326.182 833.84 326.662 834.096C327.142 834.336 327.694 834.456 328.318 834.456C328.926 834.456 329.43 834.352 329.83 834.144C330.23 833.92 330.43 833.56 330.43 833.064C330.43 832.744 330.286 832.504 329.998 832.344C329.71 832.168 329.334 832.032 328.87 831.936C328.406 831.824 327.894 831.72 327.334 831.624C326.774 831.528 326.206 831.4 325.63 831.24C325.07 831.08 324.558 830.856 324.094 830.568C323.63 830.28 323.254 829.888 322.966 829.392C322.678 828.896 322.534 828.264 322.534 827.496C322.534 826.776 322.766 826.088 323.23 825.432C323.71 824.76 324.374 824.216 325.222 823.8C326.07 823.384 327.038 823.176 328.126 823.176C329.102 823.176 330.006 823.376 330.838 823.776C331.67 824.16 332.342 824.696 332.854 825.384C333.366 826.072 333.622 826.872 333.622 827.784H330.19C330.126 827.144 329.886 826.704 329.47 826.464C329.07 826.224 328.59 826.104 328.03 826.104C327.342 826.104 326.822 826.24 326.47 826.512C326.118 826.768 325.942 827.096 325.942 827.496C325.942 827.848 326.086 828.12 326.374 828.312C326.662 828.504 327.038 828.656 327.502 828.768C327.966 828.88 328.478 828.984 329.038 829.08C329.614 829.16 330.182 829.28 330.742 829.44C331.302 829.584 331.814 829.8 332.278 830.088C332.742 830.36 333.118 830.736 333.406 831.216C333.694 831.696 333.838 832.312 333.838 833.064C333.838 833.912 333.598 834.664 333.118 835.32C332.654 835.96 331.998 836.464 331.15 836.832C330.318 837.2 329.334 837.384 328.198 837.384C327.142 837.384 326.174 837.184 325.294 836.784C324.43 836.368 323.734 835.816 323.206 835.128C322.678 834.424 322.398 833.632 322.366 832.752H325.822ZM339.754 823.56H346.834V826.488H339.754V823.56ZM341.29 820.2H344.722V832.872C344.722 833.272 344.826 833.576 345.034 833.784C345.258 833.976 345.586 834.072 346.018 834.072H347.218V837H345.994C344.426 837 343.25 836.656 342.466 835.968C341.682 835.28 341.29 834.248 341.29 832.872V820.2ZM349.217 823.56H352.649V837H349.217V823.56ZM349.097 819H352.769V822.672H349.097V819ZM355.026 823.56H358.458V837H355.026V823.56ZM358.458 830.424L358.074 827.664C358.074 827.248 358.138 826.784 358.266 826.272C358.394 825.76 358.61 825.272 358.914 824.808C359.234 824.328 359.666 823.936 360.21 823.632C360.77 823.328 361.482 823.176 362.346 823.176C363.146 823.176 363.85 823.352 364.458 823.704C365.082 824.056 365.57 824.64 365.922 825.456C366.274 826.256 366.45 827.344 366.45 828.72V837H363.018V829.032C363.018 828.504 362.986 828.024 362.922 827.592C362.874 827.144 362.738 826.792 362.514 826.536C362.29 826.28 361.914 826.152 361.386 826.152C360.986 826.152 360.554 826.288 360.09 826.56C359.642 826.832 359.258 827.28 358.938 827.904C358.618 828.512 358.458 829.352 358.458 830.424ZM366.45 830.424L365.538 827.664C365.538 827.248 365.626 826.784 365.802 826.272C365.978 825.76 366.258 825.272 366.642 824.808C367.026 824.328 367.522 823.936 368.13 823.632C368.738 823.328 369.474 823.176 370.338 823.176C371.138 823.176 371.842 823.352 372.45 823.704C373.074 824.056 373.562 824.64 373.914 825.456C374.266 826.256 374.442 827.344 374.442 828.72V837H371.01V829.032C371.01 828.504 370.978 828.024 370.914 827.592C370.866 827.144 370.73 826.792 370.506 826.536C370.282 826.28 369.906 826.152 369.378 826.152C368.978 826.152 368.546 826.288 368.082 826.56C367.634 826.832 367.25 827.28 366.93 827.904C366.61 828.512 366.45 829.352 366.45 830.424ZM382.972 837.384C381.596 837.384 380.388 837.088 379.348 836.496C378.324 835.888 377.524 835.048 376.948 833.976C376.388 832.904 376.108 831.68 376.108 830.304C376.108 828.912 376.388 827.68 376.948 826.608C377.524 825.536 378.324 824.696 379.348 824.088C380.388 823.48 381.596 823.176 382.972 823.176C383.884 823.176 384.748 823.36 385.564 823.728C386.38 824.096 387.084 824.632 387.676 825.336C388.268 826.04 388.7 826.904 388.972 827.928C389.244 828.952 389.284 830.12 389.092 831.432H378.052V828.648H386.764L385.66 829.296C385.74 828.832 385.692 828.368 385.516 827.904C385.356 827.424 385.068 827.032 384.652 826.728C384.236 826.408 383.676 826.248 382.972 826.248C382.156 826.248 381.5 826.432 381.004 826.8C380.508 827.152 380.148 827.64 379.924 828.264C379.716 828.872 379.612 829.552 379.612 830.304C379.612 831.04 379.716 831.712 379.924 832.32C380.148 832.928 380.508 833.416 381.004 833.784C381.5 834.136 382.156 834.312 382.972 834.312C383.628 834.312 384.172 834.16 384.604 833.856C385.036 833.552 385.34 833.176 385.516 832.728H389.14C388.948 833.656 388.572 834.472 388.012 835.176C387.452 835.864 386.74 836.408 385.876 836.808C385.028 837.192 384.06 837.384 382.972 837.384ZM396.602 837V823.128C396.602 822.2 396.77 821.432 397.106 820.824C397.458 820.216 397.986 819.76 398.69 819.456C399.394 819.152 400.266 819 401.306 819H402.53V821.928H401.33C400.466 821.928 400.034 822.328 400.034 823.128V837H396.602ZM395.066 823.56H402.434V826.488H395.066V823.56ZM410.136 837.384C408.76 837.384 407.552 837.088 406.512 836.496C405.488 835.888 404.688 835.048 404.112 833.976C403.552 832.904 403.272 831.68 403.272 830.304C403.272 828.912 403.552 827.68 404.112 826.608C404.688 825.536 405.488 824.696 406.512 824.088C407.552 823.48 408.76 823.176 410.136 823.176C411.528 823.176 412.736 823.48 413.76 824.088C414.784 824.696 415.576 825.536 416.136 826.608C416.712 827.68 417 828.912 417 830.304C417 831.68 416.712 832.904 416.136 833.976C415.576 835.048 414.784 835.888 413.76 836.496C412.736 837.088 411.528 837.384 410.136 837.384ZM410.136 834.312C410.92 834.312 411.552 834.136 412.032 833.784C412.528 833.416 412.896 832.928 413.136 832.32C413.376 831.712 413.496 831.04 413.496 830.304C413.496 829.552 413.376 828.872 413.136 828.264C412.896 827.64 412.528 827.152 412.032 826.8C411.552 826.432 410.92 826.248 410.136 826.248C409.368 826.248 408.736 826.432 408.24 826.8C407.744 827.152 407.376 827.64 407.136 828.264C406.896 828.872 406.776 829.552 406.776 830.304C406.776 831.04 406.896 831.712 407.136 832.32C407.376 832.928 407.744 833.416 408.24 833.784C408.736 834.136 409.368 834.312 410.136 834.312ZM418.706 823.56H422.138V837H418.706V823.56ZM422.138 830.424L421.778 827.952C421.778 827.536 421.818 827.056 421.898 826.512C421.978 825.968 422.162 825.448 422.45 824.952C422.754 824.44 423.218 824.016 423.842 823.68C424.466 823.344 425.314 823.176 426.386 823.176V826.536C425.442 826.536 424.65 826.64 424.01 826.848C423.386 827.056 422.914 827.44 422.594 828C422.29 828.544 422.138 829.352 422.138 830.424ZM441 829.32H444.432V837H441V829.32ZM438.624 823.176C440.528 823.176 441.968 823.728 442.944 824.832C443.936 825.936 444.432 827.432 444.432 829.32H441C441 828.744 440.944 828.224 440.832 827.76C440.72 827.28 440.488 826.896 440.136 826.608C439.8 826.32 439.296 826.176 438.624 826.176C437.776 826.176 437.136 826.392 436.704 826.824C436.288 827.24 436.08 827.728 436.08 828.288H432.504C432.504 827.376 432.744 826.536 433.224 825.768C433.704 824.984 434.4 824.36 435.312 823.896C436.224 823.416 437.328 823.176 438.624 823.176ZM441.336 828.552L441.84 830.832C439.952 830.752 438.592 830.936 437.76 831.384C436.944 831.816 436.536 832.352 436.536 832.992C436.536 833.424 436.696 833.744 437.016 833.952C437.352 834.16 437.736 834.264 438.168 834.264C438.584 834.264 439.008 834.2 439.44 834.072C439.888 833.944 440.256 833.696 440.544 833.328C440.848 832.96 441 832.416 441 831.696L441.648 832.752C441.648 833.648 441.48 834.448 441.144 835.152C440.808 835.84 440.328 836.384 439.704 836.784C439.096 837.184 438.36 837.384 437.496 837.384C436.616 837.384 435.832 837.224 435.144 836.904C434.472 836.568 433.936 836.088 433.536 835.464C433.152 834.84 432.96 834.08 432.96 833.184C432.96 832.32 433.128 831.608 433.464 831.048C433.816 830.488 434.28 830.048 434.856 829.728C435.448 829.392 436.104 829.144 436.824 828.984C437.56 828.824 438.312 828.72 439.08 828.672C439.864 828.608 440.616 828.568 441.336 828.552ZM638.001 833.328H641.673V837H638.001V833.328Z" fill="white"/>
<path d="M509.745 837.384C508.369 837.384 507.161 837.088 506.121 836.496C505.097 835.888 504.297 835.048 503.721 833.976C503.161 832.904 502.881 831.68 502.881 830.304C502.881 828.912 503.161 827.68 503.721 826.608C504.297 825.536 505.097 824.696 506.121 824.088C507.161 823.48 508.369 823.176 509.745 823.176C511.137 823.176 512.345 823.48 513.369 824.088C514.393 824.696 515.185 825.536 515.745 826.608C516.321 827.68 516.609 828.912 516.609 830.304C516.609 831.68 516.321 832.904 515.745 833.976C515.185 835.048 514.393 835.888 513.369 836.496C512.345 837.088 511.137 837.384 509.745 837.384ZM509.745 834.312C510.529 834.312 511.161 834.136 511.641 833.784C512.137 833.416 512.505 832.928 512.745 832.32C512.985 831.712 513.105 831.04 513.105 830.304C513.105 829.552 512.985 828.872 512.745 828.264C512.505 827.64 512.137 827.152 511.641 826.8C511.161 826.432 510.529 826.248 509.745 826.248C508.977 826.248 508.345 826.432 507.849 826.8C507.353 827.152 506.985 827.64 506.745 828.264C506.505 828.872 506.385 829.552 506.385 830.304C506.385 831.04 506.505 831.712 506.745 832.32C506.985 832.928 507.353 833.416 507.849 833.784C508.345 834.136 508.977 834.312 509.745 834.312ZM518.315 823.56H521.747V825.624C521.923 825.192 522.179 824.792 522.515 824.424C522.867 824.056 523.323 823.76 523.883 823.536C524.459 823.296 525.163 823.176 525.995 823.176C526.859 823.176 527.627 823.352 528.299 823.704C528.971 824.056 529.499 824.64 529.883 825.456C530.267 826.256 530.459 827.344 530.459 828.72V837H527.027V829.032C527.027 828.504 526.987 828.024 526.907 827.592C526.827 827.144 526.643 826.792 526.355 826.536C526.083 826.28 525.643 826.152 525.035 826.152C524.555 826.152 524.059 826.288 523.547 826.56C523.035 826.832 522.603 827.28 522.251 827.904C521.915 828.512 521.747 829.352 521.747 830.424V837H518.315V823.56ZM538.972 837.384C537.596 837.384 536.388 837.088 535.348 836.496C534.324 835.888 533.524 835.048 532.948 833.976C532.388 832.904 532.108 831.68 532.108 830.304C532.108 828.912 532.388 827.68 532.948 826.608C533.524 825.536 534.324 824.696 535.348 824.088C536.388 823.48 537.596 823.176 538.972 823.176C539.884 823.176 540.748 823.36 541.564 823.728C542.38 824.096 543.084 824.632 543.676 825.336C544.268 826.04 544.7 826.904 544.972 827.928C545.244 828.952 545.284 830.12 545.092 831.432H534.052V828.648H542.764L541.66 829.296C541.74 828.832 541.692 828.368 541.516 827.904C541.356 827.424 541.068 827.032 540.652 826.728C540.236 826.408 539.676 826.248 538.972 826.248C538.156 826.248 537.5 826.432 537.004 826.8C536.508 827.152 536.148 827.64 535.924 828.264C535.716 828.872 535.612 829.552 535.612 830.304C535.612 831.04 535.716 831.712 535.924 832.32C536.148 832.928 536.508 833.416 537.004 833.784C537.5 834.136 538.156 834.312 538.972 834.312C539.628 834.312 540.172 834.16 540.604 833.856C541.036 833.552 541.34 833.176 541.516 832.728H545.14C544.948 833.656 544.572 834.472 544.012 835.176C543.452 835.864 542.74 836.408 541.876 836.808C541.028 837.192 540.06 837.384 538.972 837.384ZM546.812 827.856H554.372V830.784H546.812V827.856ZM562.831 837.384C561.455 837.384 560.247 837.088 559.207 836.496C558.183 835.888 557.383 835.048 556.807 833.976C556.247 832.904 555.967 831.68 555.967 830.304C555.967 828.912 556.247 827.68 556.807 826.608C557.383 825.536 558.183 824.696 559.207 824.088C560.247 823.48 561.455 823.176 562.831 823.176C564.223 823.176 565.431 823.48 566.455 824.088C567.479 824.696 568.271 825.536 568.831 826.608C569.407 827.68 569.695 828.912 569.695 830.304C569.695 831.68 569.407 832.904 568.831 833.976C568.271 835.048 567.479 835.888 566.455 836.496C565.431 837.088 564.223 837.384 562.831 837.384ZM562.831 834.312C563.615 834.312 564.247 834.136 564.727 833.784C565.223 833.416 565.591 832.928 565.831 832.32C566.071 831.712 566.191 831.04 566.191 830.304C566.191 829.552 566.071 828.872 565.831 828.264C565.591 827.64 565.223 827.152 564.727 826.8C564.247 826.432 563.615 826.248 562.831 826.248C562.063 826.248 561.431 826.432 560.935 826.8C560.439 827.152 560.071 827.64 559.831 828.264C559.591 828.872 559.471 829.552 559.471 830.304C559.471 831.04 559.591 831.712 559.831 832.32C560.071 832.928 560.439 833.416 560.935 833.784C561.431 834.136 562.063 834.312 562.831 834.312ZM571.401 823.56H574.833V825.624C575.009 825.192 575.265 824.792 575.601 824.424C575.953 824.056 576.409 823.76 576.969 823.536C577.545 823.296 578.249 823.176 579.081 823.176C579.945 823.176 580.713 823.352 581.385 823.704C582.057 824.056 582.585 824.64 582.969 825.456C583.353 826.256 583.545 827.344 583.545 828.72V837H580.113V829.032C580.113 828.504 580.073 828.024 579.993 827.592C579.913 827.144 579.729 826.792 579.441 826.536C579.169 826.28 578.729 826.152 578.121 826.152C577.641 826.152 577.145 826.288 576.633 826.56C576.121 826.832 575.689 827.28 575.337 827.904C575.001 828.512 574.833 829.352 574.833 830.424V837H571.401V823.56ZM585.578 827.856H593.138V830.784H585.578V827.856ZM601.597 837.384C600.221 837.384 599.013 837.088 597.973 836.496C596.949 835.888 596.149 835.048 595.573 833.976C595.013 832.904 594.733 831.68 594.733 830.304C594.733 828.912 595.013 827.68 595.573 826.608C596.149 825.536 596.949 824.696 597.973 824.088C599.013 823.48 600.221 823.176 601.597 823.176C602.989 823.176 604.197 823.48 605.221 824.088C606.245 824.696 607.037 825.536 607.597 826.608C608.173 827.68 608.461 828.912 608.461 830.304C608.461 831.68 608.173 832.904 607.597 833.976C607.037 835.048 606.245 835.888 605.221 836.496C604.197 837.088 602.989 837.384 601.597 837.384ZM601.597 834.312C602.381 834.312 603.013 834.136 603.493 833.784C603.989 833.416 604.357 832.928 604.597 832.32C604.837 831.712 604.957 831.04 604.957 830.304C604.957 829.552 604.837 828.872 604.597 828.264C604.357 827.64 603.989 827.152 603.493 826.8C603.013 826.432 602.381 826.248 601.597 826.248C600.829 826.248 600.197 826.432 599.701 826.8C599.205 827.152 598.837 827.64 598.597 828.264C598.357 828.872 598.237 829.552 598.237 830.304C598.237 831.04 598.357 831.712 598.597 832.32C598.837 832.928 599.205 833.416 599.701 833.784C600.197 834.136 600.829 834.312 601.597 834.312ZM610.167 823.56H613.599V825.624C613.775 825.192 614.031 824.792 614.367 824.424C614.719 824.056 615.175 823.76 615.735 823.536C616.311 823.296 617.015 823.176 617.847 823.176C618.711 823.176 619.479 823.352 620.151 823.704C620.823 824.056 621.351 824.64 621.734 825.456C622.119 826.256 622.311 827.344 622.311 828.72V837H618.879V829.032C618.879 828.504 618.839 828.024 618.759 827.592C618.679 827.144 618.495 826.792 618.207 826.536C617.935 826.28 617.495 826.152 616.887 826.152C616.407 826.152 615.911 826.288 615.398 826.56C614.887 826.832 614.455 827.28 614.103 827.904C613.767 828.512 613.599 829.352 613.599 830.424V837H610.167V823.56ZM630.823 837.384C629.447 837.384 628.239 837.088 627.199 836.496C626.175 835.888 625.375 835.048 624.799 833.976C624.239 832.904 623.959 831.68 623.959 830.304C623.959 828.912 624.239 827.68 624.799 826.608C625.375 825.536 626.175 824.696 627.199 824.088C628.239 823.48 629.447 823.176 630.823 823.176C631.735 823.176 632.599 823.36 633.415 823.728C634.231 824.096 634.935 824.632 635.527 825.336C636.119 826.04 636.551 826.904 636.823 827.928C637.095 828.952 637.135 830.12 636.943 831.432H625.903V828.648H634.615L633.511 829.296C633.591 828.832 633.543 828.368 633.367 827.904C633.207 827.424 632.919 827.032 632.503 826.728C632.087 826.408 631.527 826.248 630.823 826.248C630.007 826.248 629.351 826.432 628.855 826.8C628.359 827.152 627.999 827.64 627.775 828.264C627.567 828.872 627.463 829.552 627.463 830.304C627.463 831.04 627.567 831.712 627.775 832.32C627.999 832.928 628.359 833.416 628.855 833.784C629.351 834.136 630.007 834.312 630.823 834.312C631.479 834.312 632.023 834.16 632.455 833.856C632.887 833.552 633.191 833.176 633.367 832.728H636.991C636.799 833.656 636.423 834.472 635.863 835.176C635.303 835.864 634.591 836.408 633.727 836.808C632.879 837.192 631.911 837.384 630.823 837.384Z" fill="black"/>
<path d="M451.401 823.56H454.833V837H451.401V823.56ZM454.833 830.424L454.473 827.952C454.473 827.536 454.513 827.056 454.593 826.512C454.673 825.968 454.857 825.448 455.145 824.952C455.449 824.44 455.913 824.016 456.537 823.68C457.161 823.344 458.009 823.176 459.081 823.176V826.536C458.137 826.536 457.345 826.64 456.705 826.848C456.081 827.056 455.609 827.44 455.289 828C454.985 828.544 454.833 829.352 454.833 830.424ZM466.339 837.384C464.963 837.384 463.755 837.088 462.715 836.496C461.691 835.888 460.891 835.048 460.315 833.976C459.755 832.904 459.475 831.68 459.475 830.304C459.475 828.912 459.755 827.68 460.315 826.608C460.891 825.536 461.691 824.696 462.715 824.088C463.755 823.48 464.963 823.176 466.339 823.176C467.251 823.176 468.115 823.36 468.931 823.728C469.747 824.096 470.451 824.632 471.043 825.336C471.635 826.04 472.067 826.904 472.339 827.928C472.611 828.952 472.651 830.12 472.459 831.432H461.419V828.648H470.131L469.027 829.296C469.107 828.832 469.059 828.368 468.883 827.904C468.723 827.424 468.435 827.032 468.019 826.728C467.603 826.408 467.043 826.248 466.339 826.248C465.523 826.248 464.867 826.432 464.371 826.8C463.875 827.152 463.515 827.64 463.291 828.264C463.083 828.872 462.979 829.552 462.979 830.304C462.979 831.04 463.083 831.712 463.291 832.32C463.515 832.928 463.875 833.416 464.371 833.784C464.867 834.136 465.523 834.312 466.339 834.312C466.995 834.312 467.539 834.16 467.971 833.856C468.403 833.552 468.707 833.176 468.883 832.728H472.507C472.315 833.656 471.939 834.472 471.379 835.176C470.819 835.864 470.107 836.408 469.243 836.808C468.395 837.192 467.427 837.384 466.339 837.384ZM482.484 829.32H485.916V837H482.484V829.32ZM480.108 823.176C482.012 823.176 483.452 823.728 484.428 824.832C485.42 825.936 485.916 827.432 485.916 829.32H482.484C482.484 828.744 482.428 828.224 482.316 827.76C482.204 827.28 481.972 826.896 481.62 826.608C481.284 826.32 480.78 826.176 480.108 826.176C479.26 826.176 478.62 826.392 478.188 826.824C477.772 827.24 477.564 827.728 477.564 828.288H473.988C473.988 827.376 474.228 826.536 474.708 825.768C475.188 824.984 475.884 824.36 476.796 823.896C477.708 823.416 478.812 823.176 480.108 823.176ZM482.82 828.552L483.324 830.832C481.436 830.752 480.076 830.936 479.244 831.384C478.428 831.816 478.02 832.352 478.02 832.992C478.02 833.424 478.18 833.744 478.5 833.952C478.836 834.16 479.22 834.264 479.652 834.264C480.068 834.264 480.492 834.2 480.924 834.072C481.372 833.944 481.74 833.696 482.028 833.328C482.332 832.96 482.484 832.416 482.484 831.696L483.132 832.752C483.132 833.648 482.964 834.448 482.628 835.152C482.292 835.84 481.812 836.384 481.188 836.784C480.58 837.184 479.844 837.384 478.98 837.384C478.1 837.384 477.316 837.224 476.628 836.904C475.956 836.568 475.42 836.088 475.02 835.464C474.636 834.84 474.444 834.08 474.444 833.184C474.444 832.32 474.612 831.608 474.948 831.048C475.3 830.488 475.764 830.048 476.34 829.728C476.932 829.392 477.588 829.144 478.308 828.984C479.044 828.824 479.796 828.72 480.564 828.672C481.348 828.608 482.1 828.568 482.82 828.552ZM488.082 819H491.514V837H488.082V819Z" fill="#00FF77"/>
<defs>
<filter id="filter0_d_65_1110" x="414" y="694" width="121.324" height="66.8527" filterUnits="userSpaceOnUse" color-interpolation-filters="sRGB">
<feFlood flood-opacity="0" result="BackgroundImageFix"/>
<feColorMatrix in="SourceAlpha" type="matrix" values="0 0 0 0 0 0 0 0 0 0 0 0 0 0 0 0 0 0 127 0" result="hardAlpha"/>
<feOffset dy="2"/>
<feGaussianBlur stdDeviation="1"/>
<feComposite in2="hardAlpha" operator="out"/>
<feColorMatrix type="matrix" values="0 0 0 0 0.662091 0 0 0 0 0.0772439 0 0 0 0 0 0 0 0 0.35 0"/>
<feBlend mode="normal" in2="BackgroundImageFix" result="effect1_dropShadow_65_1110"/>
<feBlend mode="normal" in="SourceGraphic" in2="effect1_dropShadow_65_1110" result="shape"/>
</filter>
<filter id="filter1_d_65_1110" x="448.053" y="710.761" width="87.2708" height="50.0916" filterUnits="userSpaceOnUse" color-interpolation-filters="sRGB">
<feFlood flood-opacity="0" result="BackgroundImageFix"/>
<feColorMatrix in="SourceAlpha" type="matrix" values="0 0 0 0 0 0 0 0 0 0 0 0 0 0 0 0 0 0 127 0" result="hardAlpha"/>
<feOffset dy="2"/>
<feGaussianBlur stdDeviation="1"/>
<feComposite in2="hardAlpha" operator="out"/>
<feColorMatrix type="matrix" values="0 0 0 0 1 0 0 0 0 1 0 0 0 0 1 0 0 0 0.15 0"/>
<feBlend mode="normal" in2="BackgroundImageFix" result="effect1_dropShadow_65_1110"/>
<feBlend mode="normal" in="SourceGraphic" in2="effect1_dropShadow_65_1110" result="shape"/>
</filter>
<linearGradient id="paint0_linear_65_1110" x1="475.5" y1="0" x2="475.5" y2="1514" gradientUnits="userSpaceOnUse">
<stop stop-color="#FFE8C1"/>
<stop offset="0.447115" stop-color="#F8BD62"/>
<stop offset="1" stop-color="#E68C0F"/>
</linearGradient>
</defs>
</svg>
