<svg width="74" height="74" viewBox="0 0 74 74" fill="none" xmlns="http://www.w3.org/2000/svg">
<g filter="url(#filter0_d_76_1140)">
<rect x="4.5" y="0.5" width="64.2949" height="64.2949" rx="20" fill="url(#paint0_linear_76_1140)"/>
<rect x="4.5" y="0.5" width="64.2949" height="64.2949" rx="20" stroke="white"/>
</g>
<path d="M32.1125 14.0001C34.3388 14.0001 36.1367 15.8179 36.1122 18.044L35.6458 60.5439C35.6217 62.7358 33.838 64.5 31.646 64.5H29.5981C28.2558 64.5 27.0031 63.8269 26.2624 62.7075L21.4245 55.3972C20.8531 54.5337 20.7899 53.4297 21.2591 52.5066C21.8284 51.3868 23.0584 50.766 24.2974 50.9732L26.2768 51.3041C26.9868 51.4228 27.6987 51.1042 28.0831 50.4957C28.3801 50.0256 28.4415 49.4442 28.2492 48.9225L27.7357 47.5292C27.5825 47.1136 27.8246 46.657 28.2546 46.5505L28.7061 46.4387C29.0498 46.3536 29.1774 45.932 28.9385 45.6706C28.7397 45.4531 28.7897 45.1081 29.0421 44.9559L29.3201 44.7882C29.7547 44.5262 29.7979 43.9125 29.4044 43.5922L29.2844 43.4945C28.6702 42.9945 29.0237 42.0001 29.8158 42.0001H31.0218C32.0967 42.0001 32.6859 40.7485 32.0011 39.9201L29.7747 37.2267C29.0338 36.3304 28.8964 35.0795 29.4249 34.0437L29.522 33.8534C29.9595 32.996 29.9933 31.9884 29.6141 31.1036L27.9625 27.2502C27.6285 26.4711 27.0557 25.8182 26.3267 25.3857L24.85 24.5097C24.2876 24.1761 23.8254 23.6973 23.512 23.1235C22.7422 21.7143 22.9863 19.9672 24.1129 18.823L27.6858 15.1939C28.4377 14.4302 29.4645 14.0001 30.5362 14.0001H32.1125Z" fill="white"/>
<path d="M41.3194 14.0001C39.0931 14.0001 37.2952 15.8179 37.3197 18.044L37.7861 60.5439C37.8102 62.7358 39.5939 64.5 41.7859 64.5H43.8338C45.176 64.5 46.4288 63.8269 47.1695 62.7075L52.0073 55.3972C52.5788 54.5337 52.642 53.4297 52.1727 52.5066C51.6035 51.3868 50.3735 50.766 49.1345 50.9732L47.1551 51.3041C46.4451 51.4228 45.7332 51.1042 45.3487 50.4957C45.0518 50.0256 44.9904 49.4442 45.1827 48.9225L45.6961 47.5292C45.8493 47.1136 45.6073 46.657 45.1772 46.5505L44.7258 46.4387C44.3821 46.3536 44.2545 45.932 44.4934 45.6706C44.6922 45.4531 44.6422 45.1081 44.3898 44.9559L44.1118 44.7882C43.6772 44.5262 43.634 43.9125 44.0275 43.5922L44.1475 43.4945C44.7617 42.9945 44.4081 42.0001 43.6161 42.0001H42.41C41.3352 42.0001 40.746 40.7485 41.4308 39.9201L43.6572 37.2267C44.3981 36.3304 44.5355 35.0795 44.007 34.0437L43.9099 33.8534C43.4723 32.996 43.4386 31.9884 43.8178 31.1036L45.4694 27.2502C45.8033 26.4711 46.3762 25.8182 47.1052 25.3857L48.5819 24.5097C49.1443 24.1761 49.6065 23.6973 49.9199 23.1235C50.6896 21.7143 50.4455 19.9672 49.319 18.823L45.7461 15.1939C44.9942 14.4302 43.9674 14.0001 42.8957 14.0001H41.3194Z" fill="white"/>
<rect x="28.0759" y="10" width="17.3163" height="3.99999" rx="2" fill="white"/>
<rect x="34.0284" y="10.5001" width="7.03475" height="52.4999" rx="3.51737" fill="white"/>
<rect x="30.7816" y="60.4999" width="12.4461" height="3.99999" fill="white"/>
<ellipse cx="36.734" cy="5.49999" rx="5.41135" ry="4.99999" fill="white"/>
<defs>
<filter id="filter0_d_76_1140" x="0" y="0" width="73.2949" height="73.2949" filterUnits="userSpaceOnUse" color-interpolation-filters="sRGB">
<feFlood flood-opacity="0" result="BackgroundImageFix"/>
<feColorMatrix in="SourceAlpha" type="matrix" values="0 0 0 0 0 0 0 0 0 0 0 0 0 0 0 0 0 0 127 0" result="hardAlpha"/>
<feOffset dy="4"/>
<feGaussianBlur stdDeviation="2"/>
<feComposite in2="hardAlpha" operator="out"/>
<feColorMatrix type="matrix" values="0 0 0 0 0 0 0 0 0 0 0 0 0 0 0 0 0 0 0.05 0"/>
<feBlend mode="normal" in2="BackgroundImageFix" result="effect1_dropShadow_76_1140"/>
<feBlend mode="normal" in="SourceGraphic" in2="effect1_dropShadow_76_1140" result="shape"/>
</filter>
<linearGradient id="paint0_linear_76_1140" x1="36.6475" y1="0.5" x2="36.6475" y2="64.7949" gradientUnits="userSpaceOnUse">
<stop stop-color="#FFE8C1"/>
<stop offset="0.447115" stop-color="#F8BD62"/>
<stop offset="1" stop-color="#E68C0F"/>
</linearGradient>
</defs>
</svg>
