<svg width="51" height="39" viewBox="0 0 51 39" fill="none" xmlns="http://www.w3.org/2000/svg">
<g filter="url(#filter0_d_76_1143)">
<path d="M2.15006 13.2H6.44006V30H2.15006V13.2ZM2.00006 7.5H6.59006V12.09H2.00006V7.5ZM13.6708 23.31C13.7508 23.97 13.9808 24.54 14.3608 25.02C14.7408 25.5 15.2308 25.87 15.8308 26.13C16.4508 26.39 17.1408 26.52 17.9008 26.52C18.9208 26.52 19.7808 26.35 20.4808 26.01C21.1808 25.65 21.5308 25.09 21.5308 24.33C21.5308 23.79 21.3108 23.36 20.8708 23.04C20.4308 22.72 19.8408 22.46 19.1008 22.26C18.3808 22.06 17.5908 21.86 16.7308 21.66C15.8708 21.46 15.0008 21.22 14.1208 20.94C13.2608 20.64 12.4608 20.24 11.7208 19.74C11.0008 19.24 10.4208 18.59 9.98076 17.79C9.54076 16.97 9.32076 15.94 9.32076 14.7C9.32076 13.5 9.67076 12.44 10.3708 11.52C11.0908 10.58 12.0708 9.85 13.3108 9.33C14.5708 8.79 16.0008 8.52 17.6008 8.52C19.1608 8.52 20.5508 8.83 21.7708 9.45C22.9908 10.07 23.9508 10.92 24.6508 12C25.3708 13.08 25.7308 14.3 25.7308 15.66H21.1708C21.0908 14.66 20.7408 13.88 20.1208 13.32C19.5208 12.76 18.6308 12.48 17.4508 12.48C16.2908 12.48 15.4008 12.69 14.7808 13.11C14.1608 13.53 13.8508 14.06 13.8508 14.7C13.8508 15.3 14.0708 15.77 14.5108 16.11C14.9508 16.45 15.5308 16.73 16.2508 16.95C16.9908 17.17 17.7908 17.38 18.6508 17.58C19.5308 17.76 20.4008 17.99 21.2608 18.27C22.1208 18.55 22.9108 18.93 23.6308 19.41C24.3708 19.89 24.9608 20.53 25.4008 21.33C25.8408 22.11 26.0608 23.11 26.0608 24.33C26.0608 26.27 25.3308 27.78 23.8708 28.86C22.4108 29.94 20.3608 30.48 17.7208 30.48C16.1008 30.48 14.6508 30.17 13.3708 29.55C12.0908 28.93 11.0708 28.08 10.3108 27C9.55076 25.92 9.14076 24.69 9.08076 23.31H13.6708ZM38.323 30.48C36.103 30.48 34.213 29.99 32.653 29.01C31.113 28.01 29.943 26.68 29.143 25.02C28.343 23.36 27.943 21.51 27.943 19.47C27.943 17.97 28.163 16.56 28.603 15.24C29.063 13.9 29.733 12.73 30.613 11.73C31.493 10.73 32.573 9.95 33.853 9.39C35.153 8.81 36.643 8.52 38.323 8.52C39.983 8.52 41.453 8.81 42.733 9.39C44.033 9.95 45.123 10.73 46.003 11.73C46.883 12.73 47.543 13.9 47.983 15.24C48.443 16.56 48.673 17.97 48.673 19.47C48.673 21.51 48.273 23.36 47.473 25.02C46.673 26.68 45.503 28.01 43.963 29.01C42.423 29.99 40.543 30.48 38.323 30.48ZM38.323 26.52C39.683 26.52 40.793 26.18 41.653 25.5C42.513 24.82 43.143 23.95 43.543 22.89C43.943 21.81 44.143 20.67 44.143 19.47C44.143 18.29 43.943 17.17 43.543 16.11C43.143 15.03 42.513 14.16 41.653 13.5C40.793 12.82 39.683 12.48 38.323 12.48C36.963 12.48 35.843 12.82 34.963 13.5C34.103 14.16 33.473 15.03 33.073 16.11C32.673 17.17 32.473 18.29 32.473 19.47C32.473 20.67 32.673 21.81 33.073 22.89C33.473 23.95 34.103 24.82 34.963 25.5C35.843 26.18 36.963 26.52 38.323 26.52Z" fill="url(#paint0_linear_76_1143)"/>
</g>
<defs>
<filter id="filter0_d_76_1143" x="0" y="7.5" width="50.673" height="26.98" filterUnits="userSpaceOnUse" color-interpolation-filters="sRGB">
<feFlood flood-opacity="0" result="BackgroundImageFix"/>
<feColorMatrix in="SourceAlpha" type="matrix" values="0 0 0 0 0 0 0 0 0 0 0 0 0 0 0 0 0 0 127 0" result="hardAlpha"/>
<feOffset dy="2"/>
<feGaussianBlur stdDeviation="1"/>
<feComposite in2="hardAlpha" operator="out"/>
<feColorMatrix type="matrix" values="0 0 0 0 1 0 0 0 0 1 0 0 0 0 1 0 0 0 0.15 0"/>
<feBlend mode="normal" in2="BackgroundImageFix" result="effect1_dropShadow_76_1143"/>
<feBlend mode="normal" in="SourceGraphic" in2="effect1_dropShadow_76_1143" result="shape"/>
</filter>
<linearGradient id="paint0_linear_76_1143" x1="25.0601" y1="0" x2="25.0601" y2="39" gradientUnits="userSpaceOnUse">
<stop stop-color="#FF8000"/>
<stop offset="1" stop-color="#441F08"/>
</linearGradient>
</defs>
</svg>
