<svg width="329" height="19" viewBox="0 0 329 19" fill="none" xmlns="http://www.w3.org/2000/svg">
<path d="M0.120145 4.56H3.55214V18H0.120145V4.56ZM0.000144541 -1.43051e-06H3.67214V3.672H0.000144541V-1.43051e-06ZM5.42246 4.56H12.5025V7.488H5.42246V4.56ZM6.95846 1.2H10.3905V13.872C10.3905 14.272 10.4945 14.576 10.7025 14.784C10.9265 14.976 11.2545 15.072 11.6865 15.072H12.8865V18H11.6625C10.0945 18 8.91846 17.656 8.13446 16.968C7.35046 16.28 6.95846 15.248 6.95846 13.872V1.2ZM17.6698 13.752C17.7498 14.392 18.0298 14.84 18.5098 15.096C18.9898 15.336 19.5418 15.456 20.1658 15.456C20.7738 15.456 21.2778 15.352 21.6778 15.144C22.0778 14.92 22.2778 14.56 22.2778 14.064C22.2778 13.744 22.1338 13.504 21.8458 13.344C21.5578 13.168 21.1818 13.032 20.7178 12.936C20.2538 12.824 19.7418 12.72 19.1818 12.624C18.6218 12.528 18.0538 12.4 17.4778 12.24C16.9178 12.08 16.4058 11.856 15.9418 11.568C15.4778 11.28 15.1018 10.888 14.8138 10.392C14.5258 9.896 14.3818 9.264 14.3818 8.496C14.3818 7.776 14.6138 7.088 15.0778 6.432C15.5578 5.76 16.2218 5.216 17.0698 4.8C17.9178 4.384 18.8858 4.176 19.9738 4.176C20.9498 4.176 21.8538 4.376 22.6858 4.776C23.5178 5.16 24.1898 5.696 24.7018 6.384C25.2138 7.072 25.4698 7.872 25.4698 8.784H22.0378C21.9738 8.144 21.7338 7.704 21.3178 7.464C20.9178 7.224 20.4378 7.104 19.8778 7.104C19.1898 7.104 18.6698 7.24 18.3178 7.512C17.9658 7.768 17.7898 8.096 17.7898 8.496C17.7898 8.848 17.9338 9.12 18.2218 9.312C18.5098 9.504 18.8858 9.656 19.3498 9.768C19.8138 9.88 20.3258 9.984 20.8858 10.08C21.4618 10.16 22.0298 10.28 22.5898 10.44C23.1498 10.584 23.6618 10.8 24.1258 11.088C24.5898 11.36 24.9658 11.736 25.2538 12.216C25.5418 12.696 25.6858 13.312 25.6858 14.064C25.6858 14.912 25.4458 15.664 24.9658 16.32C24.5018 16.96 23.8458 17.464 22.9978 17.832C22.1658 18.2 21.1818 18.384 20.0458 18.384C18.9898 18.384 18.0218 18.184 17.1418 17.784C16.2778 17.368 15.5818 16.816 15.0538 16.128C14.5258 15.424 14.2458 14.632 14.2138 13.752H17.6698ZM31.6021 4.56H38.6821V7.488H31.6021V4.56ZM33.1381 1.2H36.5701V13.872C36.5701 14.272 36.6741 14.576 36.8821 14.784C37.1061 14.976 37.4341 15.072 37.8661 15.072H39.0661V18H37.8421C36.2741 18 35.0981 17.656 34.3141 16.968C33.5301 16.28 33.1381 15.248 33.1381 13.872V1.2ZM41.0655 4.56H44.4975V18H41.0655V4.56ZM40.9455 -1.43051e-06H44.6175V3.672H40.9455V-1.43051e-06ZM46.874 4.56H50.306V18H46.874V4.56ZM50.306 11.424L49.922 8.664C49.922 8.248 49.986 7.784 50.114 7.272C50.242 6.76 50.458 6.272 50.762 5.808C51.082 5.328 51.514 4.936 52.058 4.632C52.618 4.328 53.33 4.176 54.194 4.176C54.994 4.176 55.698 4.352 56.306 4.704C56.93 5.056 57.418 5.64 57.77 6.456C58.122 7.256 58.298 8.344 58.298 9.72V18H54.866V10.032C54.866 9.504 54.834 9.024 54.77 8.592C54.722 8.144 54.586 7.792 54.362 7.536C54.138 7.28 53.762 7.152 53.234 7.152C52.834 7.152 52.402 7.288 51.938 7.56C51.49 7.832 51.106 8.28 50.786 8.904C50.466 9.512 50.306 10.352 50.306 11.424ZM58.298 11.424L57.386 8.664C57.386 8.248 57.474 7.784 57.65 7.272C57.826 6.76 58.106 6.272 58.49 5.808C58.874 5.328 59.37 4.936 59.978 4.632C60.586 4.328 61.322 4.176 62.186 4.176C62.986 4.176 63.69 4.352 64.298 4.704C64.922 5.056 65.41 5.64 65.762 6.456C66.114 7.256 66.29 8.344 66.29 9.72V18H62.858V10.032C62.858 9.504 62.826 9.024 62.762 8.592C62.714 8.144 62.578 7.792 62.354 7.536C62.13 7.28 61.754 7.152 61.226 7.152C60.826 7.152 60.394 7.288 59.93 7.56C59.482 7.832 59.098 8.28 58.778 8.904C58.458 9.512 58.298 10.352 58.298 11.424ZM74.82 18.384C73.444 18.384 72.236 18.088 71.196 17.496C70.172 16.888 69.372 16.048 68.796 14.976C68.236 13.904 67.956 12.68 67.956 11.304C67.956 9.912 68.236 8.68 68.796 7.608C69.372 6.536 70.172 5.696 71.196 5.088C72.236 4.48 73.444 4.176 74.82 4.176C75.732 4.176 76.596 4.36 77.412 4.728C78.228 5.096 78.932 5.632 79.524 6.336C80.116 7.04 80.548 7.904 80.82 8.928C81.092 9.952 81.132 11.12 80.94 12.432H69.9V9.648H78.612L77.508 10.296C77.588 9.832 77.54 9.368 77.364 8.904C77.204 8.424 76.916 8.032 76.5 7.728C76.084 7.408 75.524 7.248 74.82 7.248C74.004 7.248 73.348 7.432 72.852 7.8C72.356 8.152 71.996 8.64 71.772 9.264C71.564 9.872 71.46 10.552 71.46 11.304C71.46 12.04 71.564 12.712 71.772 13.32C71.996 13.928 72.356 14.416 72.852 14.784C73.348 15.136 74.004 15.312 74.82 15.312C75.476 15.312 76.02 15.16 76.452 14.856C76.884 14.552 77.188 14.176 77.364 13.728H80.988C80.796 14.656 80.42 15.472 79.86 16.176C79.3 16.864 78.588 17.408 77.724 17.808C76.876 18.192 75.908 18.384 74.82 18.384ZM88.4501 18V4.128C88.4501 3.2 88.6181 2.432 88.9541 1.824C89.3061 1.216 89.8341 0.76 90.5381 0.456C91.2421 0.151999 92.1141 -1.43051e-06 93.1541 -1.43051e-06H94.3781V2.928H93.1781C92.3141 2.928 91.8821 3.328 91.8821 4.128V18H88.4501ZM86.9141 4.56H94.2821V7.488H86.9141V4.56ZM101.984 18.384C100.608 18.384 99.4 18.088 98.36 17.496C97.336 16.888 96.536 16.048 95.96 14.976C95.4 13.904 95.12 12.68 95.12 11.304C95.12 9.912 95.4 8.68 95.96 7.608C96.536 6.536 97.336 5.696 98.36 5.088C99.4 4.48 100.608 4.176 101.984 4.176C103.376 4.176 104.584 4.48 105.608 5.088C106.632 5.696 107.424 6.536 107.984 7.608C108.56 8.68 108.848 9.912 108.848 11.304C108.848 12.68 108.56 13.904 107.984 14.976C107.424 16.048 106.632 16.888 105.608 17.496C104.584 18.088 103.376 18.384 101.984 18.384ZM101.984 15.312C102.768 15.312 103.4 15.136 103.88 14.784C104.376 14.416 104.744 13.928 104.984 13.32C105.224 12.712 105.344 12.04 105.344 11.304C105.344 10.552 105.224 9.872 104.984 9.264C104.744 8.64 104.376 8.152 103.88 7.8C103.4 7.432 102.768 7.248 101.984 7.248C101.216 7.248 100.584 7.432 100.088 7.8C99.592 8.152 99.224 8.64 98.984 9.264C98.744 9.872 98.624 10.552 98.624 11.304C98.624 12.04 98.744 12.712 98.984 13.32C99.224 13.928 99.592 14.416 100.088 14.784C100.584 15.136 101.216 15.312 101.984 15.312ZM110.554 4.56H113.986V18H110.554V4.56ZM113.986 11.424L113.626 8.952C113.626 8.536 113.666 8.056 113.746 7.512C113.826 6.968 114.01 6.448 114.298 5.952C114.602 5.44 115.066 5.016 115.69 4.68C116.314 4.344 117.162 4.176 118.234 4.176V7.536C117.29 7.536 116.498 7.64 115.858 7.848C115.234 8.056 114.762 8.44 114.442 9C114.138 9.544 113.986 10.352 113.986 11.424ZM132.848 10.32H136.28V18H132.848V10.32ZM130.472 4.176C132.376 4.176 133.816 4.728 134.792 5.832C135.784 6.936 136.28 8.432 136.28 10.32H132.848C132.848 9.744 132.792 9.224 132.68 8.76C132.568 8.28 132.336 7.896 131.984 7.608C131.648 7.32 131.144 7.176 130.472 7.176C129.624 7.176 128.984 7.392 128.552 7.824C128.136 8.24 127.928 8.728 127.928 9.288H124.352C124.352 8.376 124.592 7.536 125.072 6.768C125.552 5.984 126.248 5.36 127.16 4.896C128.072 4.416 129.176 4.176 130.472 4.176ZM133.184 9.552L133.688 11.832C131.8 11.752 130.44 11.936 129.608 12.384C128.792 12.816 128.384 13.352 128.384 13.992C128.384 14.424 128.544 14.744 128.864 14.952C129.2 15.16 129.584 15.264 130.016 15.264C130.432 15.264 130.856 15.2 131.288 15.072C131.736 14.944 132.104 14.696 132.392 14.328C132.696 13.96 132.848 13.416 132.848 12.696L133.496 13.752C133.496 14.648 133.328 15.448 132.992 16.152C132.656 16.84 132.176 17.384 131.552 17.784C130.944 18.184 130.208 18.384 129.344 18.384C128.464 18.384 127.68 18.224 126.992 17.904C126.32 17.568 125.784 17.088 125.384 16.464C125 15.84 124.808 15.08 124.808 14.184C124.808 13.32 124.976 12.608 125.312 12.048C125.664 11.488 126.128 11.048 126.704 10.728C127.296 10.392 127.952 10.144 128.672 9.984C129.408 9.824 130.16 9.72 130.928 9.672C131.712 9.608 132.464 9.568 133.184 9.552ZM325.045 14.328H328.717V18H325.045V14.328Z" fill="white"/>
<path d="M196.789 18.384C195.413 18.384 194.205 18.088 193.165 17.496C192.141 16.888 191.341 16.048 190.765 14.976C190.205 13.904 189.925 12.68 189.925 11.304C189.925 9.912 190.205 8.68 190.765 7.608C191.341 6.536 192.141 5.696 193.165 5.088C194.205 4.48 195.413 4.176 196.789 4.176C198.181 4.176 199.389 4.48 200.413 5.088C201.437 5.696 202.229 6.536 202.789 7.608C203.365 8.68 203.653 9.912 203.653 11.304C203.653 12.68 203.365 13.904 202.789 14.976C202.229 16.048 201.437 16.888 200.413 17.496C199.389 18.088 198.181 18.384 196.789 18.384ZM196.789 15.312C197.573 15.312 198.205 15.136 198.685 14.784C199.181 14.416 199.549 13.928 199.789 13.32C200.029 12.712 200.149 12.04 200.149 11.304C200.149 10.552 200.029 9.872 199.789 9.264C199.549 8.64 199.181 8.152 198.685 7.8C198.205 7.432 197.573 7.248 196.789 7.248C196.021 7.248 195.389 7.432 194.893 7.8C194.397 8.152 194.029 8.64 193.789 9.264C193.549 9.872 193.429 10.552 193.429 11.304C193.429 12.04 193.549 12.712 193.789 13.32C194.029 13.928 194.397 14.416 194.893 14.784C195.389 15.136 196.021 15.312 196.789 15.312ZM205.358 4.56H208.79V6.624C208.966 6.192 209.222 5.792 209.558 5.424C209.91 5.056 210.366 4.76 210.926 4.536C211.502 4.296 212.206 4.176 213.038 4.176C213.902 4.176 214.67 4.352 215.342 4.704C216.014 5.056 216.542 5.64 216.926 6.456C217.31 7.256 217.502 8.344 217.502 9.72V18H214.07V10.032C214.07 9.504 214.03 9.024 213.95 8.592C213.87 8.144 213.686 7.792 213.398 7.536C213.126 7.28 212.686 7.152 212.078 7.152C211.598 7.152 211.102 7.288 210.59 7.56C210.078 7.832 209.646 8.28 209.294 8.904C208.958 9.512 208.79 10.352 208.79 11.424V18H205.358V4.56ZM226.015 18.384C224.639 18.384 223.431 18.088 222.391 17.496C221.367 16.888 220.567 16.048 219.991 14.976C219.431 13.904 219.151 12.68 219.151 11.304C219.151 9.912 219.431 8.68 219.991 7.608C220.567 6.536 221.367 5.696 222.391 5.088C223.431 4.48 224.639 4.176 226.015 4.176C226.927 4.176 227.791 4.36 228.607 4.728C229.423 5.096 230.127 5.632 230.719 6.336C231.311 7.04 231.743 7.904 232.015 8.928C232.287 9.952 232.327 11.12 232.135 12.432H221.095V9.648H229.807L228.703 10.296C228.783 9.832 228.735 9.368 228.559 8.904C228.399 8.424 228.111 8.032 227.695 7.728C227.279 7.408 226.719 7.248 226.015 7.248C225.199 7.248 224.543 7.432 224.047 7.8C223.551 8.152 223.191 8.64 222.967 9.264C222.759 9.872 222.655 10.552 222.655 11.304C222.655 12.04 222.759 12.712 222.967 13.32C223.191 13.928 223.551 14.416 224.047 14.784C224.543 15.136 225.199 15.312 226.015 15.312C226.671 15.312 227.215 15.16 227.647 14.856C228.079 14.552 228.383 14.176 228.559 13.728H232.183C231.991 14.656 231.615 15.472 231.055 16.176C230.495 16.864 229.783 17.408 228.919 17.808C228.071 18.192 227.103 18.384 226.015 18.384ZM233.856 8.856H241.416V11.784H233.856V8.856ZM249.875 18.384C248.499 18.384 247.291 18.088 246.251 17.496C245.227 16.888 244.427 16.048 243.851 14.976C243.291 13.904 243.011 12.68 243.011 11.304C243.011 9.912 243.291 8.68 243.851 7.608C244.427 6.536 245.227 5.696 246.251 5.088C247.291 4.48 248.499 4.176 249.875 4.176C251.267 4.176 252.475 4.48 253.499 5.088C254.523 5.696 255.315 6.536 255.875 7.608C256.451 8.68 256.739 9.912 256.739 11.304C256.739 12.68 256.451 13.904 255.875 14.976C255.315 16.048 254.523 16.888 253.499 17.496C252.475 18.088 251.267 18.384 249.875 18.384ZM249.875 15.312C250.659 15.312 251.291 15.136 251.771 14.784C252.267 14.416 252.635 13.928 252.875 13.32C253.115 12.712 253.235 12.04 253.235 11.304C253.235 10.552 253.115 9.872 252.875 9.264C252.635 8.64 252.267 8.152 251.771 7.8C251.291 7.432 250.659 7.248 249.875 7.248C249.107 7.248 248.475 7.432 247.979 7.8C247.483 8.152 247.115 8.64 246.875 9.264C246.635 9.872 246.515 10.552 246.515 11.304C246.515 12.04 246.635 12.712 246.875 13.32C247.115 13.928 247.483 14.416 247.979 14.784C248.475 15.136 249.107 15.312 249.875 15.312ZM258.444 4.56H261.876V6.624C262.052 6.192 262.308 5.792 262.644 5.424C262.996 5.056 263.452 4.76 264.012 4.536C264.588 4.296 265.292 4.176 266.124 4.176C266.988 4.176 267.756 4.352 268.428 4.704C269.1 5.056 269.628 5.64 270.012 6.456C270.396 7.256 270.588 8.344 270.588 9.72V18H267.156V10.032C267.156 9.504 267.116 9.024 267.036 8.592C266.956 8.144 266.772 7.792 266.484 7.536C266.212 7.28 265.772 7.152 265.164 7.152C264.684 7.152 264.188 7.288 263.676 7.56C263.164 7.832 262.732 8.28 262.38 8.904C262.044 9.512 261.876 10.352 261.876 11.424V18H258.444V4.56ZM272.621 8.856H280.181V11.784H272.621V8.856ZM288.64 18.384C287.264 18.384 286.056 18.088 285.016 17.496C283.992 16.888 283.192 16.048 282.616 14.976C282.056 13.904 281.776 12.68 281.776 11.304C281.776 9.912 282.056 8.68 282.616 7.608C283.192 6.536 283.992 5.696 285.016 5.088C286.056 4.48 287.264 4.176 288.64 4.176C290.032 4.176 291.24 4.48 292.264 5.088C293.288 5.696 294.08 6.536 294.64 7.608C295.216 8.68 295.504 9.912 295.504 11.304C295.504 12.68 295.216 13.904 294.64 14.976C294.08 16.048 293.288 16.888 292.264 17.496C291.24 18.088 290.032 18.384 288.64 18.384ZM288.64 15.312C289.424 15.312 290.056 15.136 290.536 14.784C291.032 14.416 291.4 13.928 291.64 13.32C291.88 12.712 292 12.04 292 11.304C292 10.552 291.88 9.872 291.64 9.264C291.4 8.64 291.032 8.152 290.536 7.8C290.056 7.432 289.424 7.248 288.64 7.248C287.872 7.248 287.24 7.432 286.744 7.8C286.248 8.152 285.88 8.64 285.64 9.264C285.4 9.872 285.28 10.552 285.28 11.304C285.28 12.04 285.4 12.712 285.64 13.32C285.88 13.928 286.248 14.416 286.744 14.784C287.24 15.136 287.872 15.312 288.64 15.312ZM297.21 4.56H300.642V6.624C300.818 6.192 301.074 5.792 301.41 5.424C301.762 5.056 302.218 4.76 302.778 4.536C303.354 4.296 304.058 4.176 304.89 4.176C305.754 4.176 306.522 4.352 307.194 4.704C307.866 5.056 308.394 5.64 308.778 6.456C309.162 7.256 309.354 8.344 309.354 9.72V18H305.922V10.032C305.922 9.504 305.882 9.024 305.802 8.592C305.722 8.144 305.538 7.792 305.25 7.536C304.978 7.28 304.538 7.152 303.93 7.152C303.45 7.152 302.954 7.288 302.442 7.56C301.93 7.832 301.498 8.28 301.146 8.904C300.81 9.512 300.642 10.352 300.642 11.424V18H297.21V4.56ZM317.867 18.384C316.491 18.384 315.283 18.088 314.243 17.496C313.219 16.888 312.419 16.048 311.843 14.976C311.283 13.904 311.003 12.68 311.003 11.304C311.003 9.912 311.283 8.68 311.843 7.608C312.419 6.536 313.219 5.696 314.243 5.088C315.283 4.48 316.491 4.176 317.867 4.176C318.779 4.176 319.643 4.36 320.459 4.728C321.275 5.096 321.979 5.632 322.571 6.336C323.163 7.04 323.595 7.904 323.867 8.928C324.139 9.952 324.179 11.12 323.987 12.432H312.947V9.648H321.659L320.555 10.296C320.635 9.832 320.587 9.368 320.411 8.904C320.251 8.424 319.963 8.032 319.547 7.728C319.131 7.408 318.571 7.248 317.867 7.248C317.051 7.248 316.395 7.432 315.899 7.8C315.403 8.152 315.043 8.64 314.819 9.264C314.611 9.872 314.507 10.552 314.507 11.304C314.507 12.04 314.611 12.712 314.819 13.32C315.043 13.928 315.403 14.416 315.899 14.784C316.395 15.136 317.051 15.312 317.867 15.312C318.523 15.312 319.067 15.16 319.499 14.856C319.931 14.552 320.235 14.176 320.411 13.728H324.035C323.843 14.656 323.467 15.472 322.907 16.176C322.347 16.864 321.635 17.408 320.771 17.808C319.923 18.192 318.955 18.384 317.867 18.384Z" fill="black"/>
<path d="M143.249 4.56H146.681V18H143.249V4.56ZM146.681 11.424L146.321 8.952C146.321 8.536 146.361 8.056 146.441 7.512C146.521 6.968 146.705 6.448 146.993 5.952C147.297 5.44 147.761 5.016 148.385 4.68C149.009 4.344 149.857 4.176 150.929 4.176V7.536C149.985 7.536 149.193 7.64 148.553 7.848C147.929 8.056 147.457 8.44 147.137 9C146.833 9.544 146.681 10.352 146.681 11.424ZM158.187 18.384C156.811 18.384 155.603 18.088 154.563 17.496C153.539 16.888 152.739 16.048 152.163 14.976C151.603 13.904 151.323 12.68 151.323 11.304C151.323 9.912 151.603 8.68 152.163 7.608C152.739 6.536 153.539 5.696 154.563 5.088C155.603 4.48 156.811 4.176 158.187 4.176C159.099 4.176 159.963 4.36 160.779 4.728C161.595 5.096 162.299 5.632 162.891 6.336C163.483 7.04 163.915 7.904 164.187 8.928C164.459 9.952 164.499 11.12 164.307 12.432H153.267V9.648H161.979L160.875 10.296C160.955 9.832 160.907 9.368 160.731 8.904C160.571 8.424 160.283 8.032 159.867 7.728C159.451 7.408 158.891 7.248 158.187 7.248C157.371 7.248 156.715 7.432 156.219 7.8C155.723 8.152 155.363 8.64 155.139 9.264C154.931 9.872 154.827 10.552 154.827 11.304C154.827 12.04 154.931 12.712 155.139 13.32C155.363 13.928 155.723 14.416 156.219 14.784C156.715 15.136 157.371 15.312 158.187 15.312C158.843 15.312 159.387 15.16 159.819 14.856C160.251 14.552 160.555 14.176 160.731 13.728H164.355C164.163 14.656 163.787 15.472 163.227 16.176C162.667 16.864 161.955 17.408 161.091 17.808C160.243 18.192 159.275 18.384 158.187 18.384ZM174.333 10.32H177.765V18H174.333V10.32ZM171.957 4.176C173.861 4.176 175.301 4.728 176.277 5.832C177.269 6.936 177.765 8.432 177.765 10.32H174.333C174.333 9.744 174.277 9.224 174.165 8.76C174.053 8.28 173.821 7.896 173.469 7.608C173.133 7.32 172.629 7.176 171.957 7.176C171.109 7.176 170.469 7.392 170.037 7.824C169.621 8.24 169.413 8.728 169.413 9.288H165.837C165.837 8.376 166.077 7.536 166.557 6.768C167.037 5.984 167.733 5.36 168.645 4.896C169.557 4.416 170.661 4.176 171.957 4.176ZM174.669 9.552L175.173 11.832C173.285 11.752 171.925 11.936 171.093 12.384C170.277 12.816 169.869 13.352 169.869 13.992C169.869 14.424 170.029 14.744 170.349 14.952C170.685 15.16 171.069 15.264 171.501 15.264C171.917 15.264 172.341 15.2 172.773 15.072C173.221 14.944 173.589 14.696 173.877 14.328C174.181 13.96 174.333 13.416 174.333 12.696L174.981 13.752C174.981 14.648 174.813 15.448 174.477 16.152C174.141 16.84 173.661 17.384 173.037 17.784C172.429 18.184 171.693 18.384 170.829 18.384C169.949 18.384 169.165 18.224 168.477 17.904C167.805 17.568 167.269 17.088 166.869 16.464C166.485 15.84 166.293 15.08 166.293 14.184C166.293 13.32 166.461 12.608 166.797 12.048C167.149 11.488 167.613 11.048 168.189 10.728C168.781 10.392 169.437 10.144 170.157 9.984C170.893 9.824 171.645 9.72 172.413 9.672C173.197 9.608 173.949 9.568 174.669 9.552ZM179.93 -1.43051e-06H183.362V18H179.93V-1.43051e-06Z" fill="#00FF77"/>
</svg>
